<?xml version="1.0" encoding="utf-8"?>
<!-- Generator: Adobe Illustrator 19.0.0, SVG Export Plug-In . SVG Version: 6.00 Build 0)  -->
<svg version="1.1" id="图层_1" xmlns="http://www.w3.org/2000/svg" xmlns:xlink="http://www.w3.org/1999/xlink" x="0px" y="0px"
	 viewBox="0 0 59 59" style="enable-background:new 0 0 59 59;" xml:space="preserve">
<style type="text/css">
	.st0{fill:#159453;}
</style>
<path id="XMLID_53_" class="st0" d="M59,46.5C59,53.4,53.4,59,46.5,59h-34C5.6,59,0,53.4,0,46.5v-34C0,5.6,5.6,0,12.5,0h34
	C53.4,0,59,5.6,59,12.5V46.5z M44.3,32.6c-1.6,0-2.9,1.3-2.9,2.9c0,1.6,1.3,2.9,2.9,2.9c1.6,0,2.9-1.3,2.9-2.9
	C47.2,33.9,45.9,32.6,44.3,32.6z M44.3,46.6C44.3,46.6,44.3,46.6,44.3,46.6L44.3,46.6C44.3,46.6,44.3,46.6,44.3,46.6z M45.4,20.7
	l-12.6-9.1c-0.5-0.4-1.7-1.3-3.3-1.3c-1.6,0-2.8,0.9-3.3,1.3l-0.1,0.1l-12.4,8.9c-0.6,0.4-1.9,1.6-1.9,3.6v17.9c0,2.5,2,4.4,4.4,4.4
	l4.6,0h23.5c0.1,0,0.3,0,0.4,0c1.4-0.2,2.5-1.4,2.5-2.9c0-1.6-1.3-2.9-2.9-2.9c0,0-0.1,0-0.1,0l0,0H18.7c-0.1,0-0.2,0-0.3,0
	c-0.4-0.1-0.7-0.4-0.7-0.8c0-0.1,0-0.1,0-0.2c0,0,0,0,0-0.1V25.5c0-0.5,0.2-0.8,0.7-1.1c0.3-0.2,3.4-2.4,9.9-7l0.6-0.4l0,0
	c0,0,0,0,0,0l0,0l0,0l0,0c0,0,0,0,0,0l0,0c0,0,0,0,0,0c0,0,0,0,0,0l-0.1,0c0.2-0.1,0.4-0.2,0.6-0.2c0.2,0,0.5,0.1,0.6,0.2l0,0l0,0
	c0,0,0,0,0,0c0,0,0,0,0,0v0c0.4,0.3,5.9,4.2,8.9,6.3l1.8,1.3c0.2,0.2,0.5,0.4,0.5,0.9v2c0,1.6,1.3,2.9,2.9,2.9
	c1.6,0,2.9-1.3,2.9-2.9v-3.2C47.2,22.8,46.5,21.5,45.4,20.7z M28.8,17C28.8,17,28.8,17,28.8,17L28.8,17L28.8,17z"/>
</svg>
