<?xml version="1.0" encoding="utf-8"?>
<!-- Generator: Adobe Illustrator 19.0.0, SVG Export Plug-In . SVG Version: 6.00 Build 0)  -->
<svg version="1.1" id="图层_1" xmlns="http://www.w3.org/2000/svg" xmlns:xlink="http://www.w3.org/1999/xlink" x="0px" y="0px"
	 viewBox="0 0 59 59" style="enable-background:new 0 0 59 59;" xml:space="preserve">
<style type="text/css">
	.st0{fill:#159453;}
</style>
<path id="XMLID_53_" class="st0" d="M48.7,37.2c0,1.7-1.4,3.2-3.2,3.2c-1.7,0-3.2-1.4-3.2-3.2c0-1.7,1.4-3.2,3.2-3.2
	C47.3,34,48.7,35.4,48.7,37.2z M45.6,49.2L45.6,49.2C45.5,49.2,45.5,49.2,45.6,49.2C45.5,49.2,45.5,49.2,45.6,49.2z M46.7,21
	l-13.6-9.8c-0.6-0.4-1.9-1.4-3.6-1.4c-1.7,0-3,1-3.6,1.4l-0.1,0.1L12.3,21c-0.6,0.4-2.1,1.7-2.1,3.9v19.4c0,2.7,2.2,4.8,4.8,4.8l5,0
	h25.4c0.1,0,0.3,0,0.4,0c1.5-0.2,2.7-1.5,2.7-3.1c0-1.8-1.4-3.2-3.2-3.2c0,0-0.1,0-0.1,0l0,0H17.8c-0.1,0-0.2,0-0.3,0
	c-0.4-0.1-0.7-0.4-0.8-0.8c0-0.1,0-0.1,0-0.2c0,0,0,0,0-0.1V26.2c0-0.6,0.3-0.8,0.7-1.2c0.3-0.2,3.6-2.6,10.7-7.6l0.6-0.5l0,0
	c0,0,0,0,0,0l0.1,0l0,0l0,0c0,0,0,0,0,0l0,0c0,0,0,0,0,0c0,0,0,0,0,0l-0.1,0c0.2-0.1,0.4-0.2,0.7-0.2c0.3,0,0.5,0.1,0.7,0.2h0l0,0
	c0,0,0,0,0,0l0,0v0c0.4,0.3,6.4,4.5,9.6,6.8l2,1.4c0.2,0.2,0.5,0.5,0.5,1v2.2c0,1.7,1.4,3.2,3.2,3.2c1.7,0,3.2-1.4,3.2-3.2v-3.4
	C48.7,23.4,48,21.9,46.7,21z M28.7,17C28.7,17,28.7,17,28.7,17L28.7,17L28.7,17z"/>
</svg>
